#!OML:ASF G:\JayActor3\Patient Classification 1\Patient 1\Session 5\male.ASF
:FULLY-SPECIFIED
:DEGREES
834
root 55.6797 15.6218 -4.98626 153.79 85.9742 135.842
lowerback 25.2061 -1.13389 -0.383238
upperback 7.65128 -0.99864 -1.2393
thorax -5.55311 -0.208737 -0.865157
lowerneck 4.7779 -1.62478 0.936909
upperneck -10.2591 -1.76637 2.6086
head -4.20215 -1.0024 0.795583
rclavicle -2.50966e-015 -2.67117e-014
rhumerus -36.0767 -2.03999 -87.3961
rradius 29.0952
rwrist 2.55942
rhand -21.5052 -8.04794
rfingers 7.12502
rthumb 4.88656 -37.9716
lclavicle -2.50966e-015 -2.67117e-014
lhumerus -36.0655 -1.39188 86.1685
lradius 27.648
lwrist 19.4532
lhand -20.0681 9.54469
lfingers 7.12502
lthumb 6.27411 39.4318
rfemur -58.3545 2.60439 14.0792
rtibia 36.8366
rfoot -21.3817 -13.5647
rtoes -7.89009
lfemur -24.3434 3.74115 -28.1263
ltibia 38.9409
lfoot -21.8668 6.18553
ltoes -13.7327
835
root 55.8391 15.6084 -4.97003 153.093 85.7517 135.277
lowerback 25.1101 -1.15527 -0.48583
upperback 7.66998 -1.05079 -1.28315
thorax -5.48434 -0.232809 -0.839519
lowerneck 4.82161 -1.63779 0.925025
upperneck -10.2062 -1.7811 2.66066
head -4.19126 -1.01198 0.81579
rclavicle 1.75924e-014 8.94531e-016
rhumerus -36.2475 -2.08311 -87.4042
rradius 29.1621
rwrist 2.67647
rhand -21.4967 -8.09087
rfingers 7.12502
rthumb 4.89472 -38.0143
lclavicle 1.75924e-014 8.94531e-016
lhumerus -36.1112 -1.41173 86.2111
lradius 27.7595
lwrist 19.5934
lhand -20.0505 9.44325
lfingers 7.12502
lthumb 6.29106 39.3298
rfemur -58.1867 2.82582 13.4198
rtibia 35.0852
rfoot -21.4688 -14.1294
rtoes -4.76872
lfemur -23.2459 4.02589 -28.1702
ltibia 38.3931
lfoot -22.0952 5.94861
ltoes -14.0313
836
root 56.0002 15.5924 -4.95301 152.528 85.5271 134.841
lowerback 25.0139 -1.17783 -0.5889
upperback 7.69157 -1.10364 -1.32282
thorax -5.41204 -0.257223 -0.809011
lowerneck 4.83962 -1.64905 0.913003
upperneck -10.136 -1.79536 2.70417
head -4.16904 -1.0206 0.832515
rclavicle -1.50082e-014 -2.47735e-014
rhumerus -36.4216 -2.11434 -87.4148
rradius 29.247
rwrist 2.74111
rhand -21.4915 -8.11394
rfingers 7.12502
rthumb 4.89976 -38.0373
lclavicle -1.50082e-014 -2.47735e-014
lhumerus -36.1415 -1.42166 86.2564
lradius 27.854
lwrist 19.7559
lhand -20.0256 9.33801
lfingers 7.12502
lthumb 6.31505 39.2239
rfemur -58.0198 3.03766 12.7704
rtibia 33.5184
rfoot -21.593 -14.6624
rtoes -1.89127
lfemur -22.1571 4.2485 -28.1767
ltibia 37.8674
lfoot -22.3142 5.67861
ltoes -14.3431
837
root 56.1631 15.5735 -4.93512 152.108 85.3015 134.549
lowerback 24.9271 -1.20285 -0.68954
upperback 7.71054 -1.15865 -1.3583
thorax -5.34714 -0.282803 -0.774797
lowerneck 4.84349 -1.65796 0.908166
upperneck -10.0549 -1.80863 2.72656
head -4.14032 -1.02786 0.840471
rclavicle 2.49226e-014 1.26974e-014
rhumerus -36.6038 -2.14009 -87.4267
rradius 29.3367
rwrist 2.75615
rhand -21.4962 -8.12284
rfingers 7.12502
rthumb 4.89521 -38.0463
lclavicle 2.49226e-014 1.26974e-014
lhumerus -36.1695 -1.42926 86.3051
lradius 27.9345
lwrist 19.9283
lhand -20.0093 9.24351
lfingers 7.12502
lthumb 6.33081 39.1289
rfemur -57.8496 3.23934 12.138
rtibia 32.1575
rfoot -21.713 -15.0646
rtoes 0.96495
lfemur -21.0839 4.40985 -28.1469
ltibia 37.3774
lfoot -22.5256 5.38379
ltoes -14.6769
838
root 56.3278 15.5519 -4.91613 151.751 85.076 134.315
lowerback 24.8458 -1.22881 -0.794468
upperback 7.72545 -1.21589 -1.39153
thorax -5.28916 -0.309667 -0.735132
lowerneck 4.84658 -1.66208 0.912011
upperneck -9.98142 -1.81575 2.73543
head -4.11448 -1.03176 0.842135
rclavicle -2.6339e-014 -3.54831e-014
rhumerus -36.7898 -2.16409 -87.4397
rradius 29.4204
rwrist 2.72293
rhand -21.5047 -8.13105
rfingers 7.12502
rthumb 4.88703 -38.0547
lclavicle -2.6339e-014 -3.54831e-014
lhumerus -36.1965 -1.42259 86.3492
lradius 28.0011
lwrist 20.0939
lhand -19.9929 9.16549
lfingers 7.12502
lthumb 6.34663 39.0504
rfemur -57.6971 3.40838 11.5592
rtibia 31.0272
rfoot -21.7744 -15.4161
rtoes 3.13838
lfemur -20.036 4.51685 -28.0876
ltibia 36.9311
lfoot -22.7282 5.04543
ltoes -14.9659
839
root 56.4946 15.5271 -4.89604 151.496 84.8531 134.177
lowerback 24.7719 -1.25756 -0.899128
upperback 7.73579 -1.27668 -1.42144
thorax -5.23962 -0.338447 -0.691073
lowerneck 4.85531 -1.66125 0.916384
upperneck -9.92252 -1.81585 2.74039
head -4.09512 -1.0321 0.842328
rclavicle -7.33018e-015 -2.42766e-014
rhumerus -36.9734 -2.17995 -87.4561
rradius 29.4832
rwrist 2.63757
rhand -21.5335 -8.1368
rfingers 7.12502
rthumb 4.85921 -38.0611
lclavicle -7.33018e-015 -2.42766e-014
lhumerus -36.2264 -1.407 86.3894
lradius 28.0571
lwrist 20.2437
lhand -19.9894 9.10816
lfingers 7.12502
lthumb 6.35003 38.993
rfemur -57.562 3.54433 11.0463
rtibia 30.1396
rfoot -21.6946 -15.6731
rtoes 4.8402
lfemur -19.0159 4.57342 -27.9982
ltibia 36.5336
lfoot -22.9224 4.68637
ltoes -15.2431
840
root 56.6635 15.4997 -4.87489 151.389 84.6427 134.181
lowerback 24.7073 -1.28784 -0.99132
upperback 7.74075 -1.33669 -1.44675
thorax -5.20061 -0.367063 -0.64941
lowerneck 4.87583 -1.65726 0.930684
upperneck -9.88324 -1.81153 2.72969
head -4.08543 -1.03007 0.835753
rclavicle 3.14577e-014 3.93842e-014
rhumerus -37.1534 -2.19895 -87.4719
rradius 29.5228
rwrist 2.51542
rhand -21.5709 -8.15629
rfingers 7.12502
rthumb 4.82312 -38.0814
lclavicle 3.14577e-014 3.93842e-014
lhumerus -36.2587 -1.38704 86.4259
lradius 28.0995
lwrist 20.3603
lhand -19.9886 9.06494
lfingers 7.12502
lthumb 6.35078 38.9497
rfemur -57.4375 3.64702 10.6226
rtibia 29.5121
rfoot -21.4773 -15.8157
rtoes 6.08835
lfemur -18.0211 4.59047 -27.8715
ltibia 36.1823
lfoot -23.1142 4.31504
ltoes -15.5285
841
root 56.835 15.4694 -4.85283 151.41 84.4507 134.312
lowerback 24.6482 -1.32038 -1.06617
upperback 7.74382 -1.39556 -1.46949
thorax -5.16669 -0.395232 -0.615236
lowerneck 4.90907 -1.65342 0.930817
upperneck -9.86735 -1.80557 2.73831
head -4.08638 -1.02775 0.838568
rclavicle -1.13307e-014 -7.97623e-015
rhumerus -37.3229 -2.2156 -87.4923
rradius 29.5286
rwrist 2.37006
rhand -21.6105 -8.18457
rfingers 7.12502
rthumb 4.78489 -38.1105
lclavicle -1.13307e-014 -7.97623e-015
lhumerus -36.2925 -1.36299 86.455
lradius 28.129
lwrist 20.4386
lhand -20.0007 9.03578
lfingers 7.12502
lthumb 6.33914 38.9209
rfemur -57.3314 3.72764 10.2918
rtibia 29.1491
rfoot -21.1434 -15.8555
rtoes 5.42226
lfemur -17.0422 4.57893 -27.7087
ltibia 35.8737
lfoot -23.3066 3.95559
ltoes -15.8757
842
root 57.0096 15.4366 -4.8299 151.565 84.2845 134.574
lowerback 24.5879 -1.35088 -1.11549
upperback 7.74725 -1.44566 -1.48724
thorax -5.13226 -0.419283 -0.592813
lowerneck 4.94718 -1.65282 0.919085
upperneck -9.86708 -1.8034 2.75673
head -4.09366 -1.02742 0.847236
rclavicle 8.77137e-015 4.2689e-014
rhumerus -37.4807 -2.24802 -87.5061
rradius 29.5053
rwrist 2.23119
rhand -21.6328 -8.21662
rfingers 7.12502
rthumb 4.76332 -38.1431
lclavicle 8.77137e-015 4.2689e-014
lhumerus -36.3216 -1.34051 86.4814
lradius 28.1388
lwrist 20.47
lhand -20.014 9.00948
lfingers 7.12502
lthumb 6.32629 38.895
rfemur -57.2246 3.81374 10.0381
rtibia 29.0418
rfoot -20.809 -15.7849
rtoes 3.23529
lfemur -16.0754 4.54763 -27.5066
ltibia 35.6068
lfoot -23.5067 3.61753
ltoes -16.2979
